<svg id="visual" viewBox="0 0 960 540" width="960" height="540" xmlns="http://www.w3.org/2000/svg" xmlns:xlink="http://www.w3.org/1999/xlink" version="1.1"><path d="M0 147L87 163L175 71L262 131L349 98L436 87L524 168L611 158L698 163L785 185L873 114L960 114L960 0L873 0L785 0L698 0L611 0L524 0L436 0L349 0L262 0L175 0L87 0L0 0Z" fill="#00583e"></path><path d="M0 244L87 222L175 190L262 244L349 217L436 179L524 282L611 222L698 217L785 320L873 217L960 249L960 112L873 112L785 183L698 161L611 156L524 166L436 85L349 96L262 129L175 69L87 161L0 145Z" fill="#004937"></path><path d="M0 336L87 314L175 249L262 276L349 303L436 266L524 352L611 276L698 298L785 395L873 249L960 309L960 247L873 215L785 318L698 215L611 220L524 280L436 177L349 215L262 242L175 188L87 220L0 242Z" fill="#003b2f"></path><path d="M0 406L87 417L175 352L262 379L349 406L436 325L524 417L611 330L698 395L785 476L873 357L960 379L960 307L873 247L785 393L698 296L611 274L524 350L436 264L349 301L262 274L175 247L87 312L0 334Z" fill="#002d26"></path><path d="M0 541L87 541L175 541L262 541L349 541L436 541L524 541L611 541L698 541L785 541L873 541L960 541L960 377L873 355L785 474L698 393L611 328L524 415L436 323L349 404L262 377L175 350L87 415L0 404Z" fill="#00201c"></path></svg>